<?xml version="1.0" encoding="utf-8"?>
<!-- Generator: Adobe Illustrator 17.0.0, SVG Export Plug-In . SVG Version: 6.00 Build 0)  -->
<!DOCTYPE svg PUBLIC "-//W3C//DTD SVG 1.1//EN" "http://www.w3.org/Graphics/SVG/1.1/DTD/svg11.dtd">
<svg version="1.1" id="Layer_1" xmlns="http://www.w3.org/2000/svg" xmlns:xlink="http://www.w3.org/1999/xlink" x="0px" y="0px"
	 width="242px" height="50px" viewBox="0 0 242 50" enable-background="new 0 0 242 50" xml:space="preserve">
<g>
	<g id="Publimedia_1_">
		<path fill="#FFFFFF" d="M71.73,14.786c0,0,1.96-1.788,4.492-1.788c6.78,0,7.76,3.946,7.76,8.77c0,4.826-0.98,8.775-7.76,8.775
			c-2.06,0-3.579-0.981-4.389-1.686v8.773c0,0.202-0.169,0.336-0.339,0.336c-0.204,0-3.375-0.336-3.375-0.336
			c-0.202-0.037-0.338-0.133-0.338-0.334V16.369c0-1.686-0.337-2.496-0.337-2.697c0-0.204,0.135-0.672,0.337-0.672h3.375
			c0.134,0,0.271,0.134,0.338,0.333C71.526,13.57,71.73,14.786,71.73,14.786z M76.222,27.168c3.103,0,3.712-2.361,3.712-5.4
			c0-3.035-0.609-5.4-3.712-5.4c-3.444,0-4.322,2.125-4.389,5.4C71.834,24.807,72.778,27.168,76.222,27.168z"/>
		<path fill="#FFFFFF" d="M102.472,27.505c0,1.352,0.335,2.569,0.335,2.7c0,0.204-0.132,0.338-0.335,0.338h-3.377
			c-0.134,0-0.303-0.134-0.335-0.338l-0.204-1.588c0,0-1.485,1.927-4.521,1.927c-5.403,0-6.752-2.361-6.752-7.423v-9.449
			c0-0.204,0.137-0.305,0.337-0.339l3.374-0.335c0.205,0,0.338,0.134,0.338,0.335v9.787c0,3.376,1.015,4.047,2.702,4.047
			c2.798,0,4.387-1.35,4.387-4.047v-9.449c0-0.204,0.166-0.339,0.337-0.339l3.374-0.335c0.201,0,0.338,0.134,0.338,0.335V27.505z"/>
		<path fill="#FFFFFF" d="M109.822,30.543h-3.375c-0.205,0-0.336-0.134-0.336-0.338c0-0.2,0.336-1.348,0.336-3.037V5.572
			c0-0.203,0.135-0.304,0.333-0.339c0,0,3.177-0.337,3.378-0.337c0.17,0,0.338,0.134,0.338,0.337v9.449
			c0.81-0.706,2.328-1.684,4.386-1.684c6.785,0,7.764,3.946,7.764,8.77c0,4.826-0.978,8.775-7.764,8.775
			c-2.531,0-4.488-1.789-4.488-1.789s-0.201,1.216-0.236,1.45C110.091,30.409,109.957,30.543,109.822,30.543z M114.883,27.168
			c3.105,0,3.715-2.361,3.715-5.4c0-3.035-0.61-5.4-3.715-5.4c-3.442,0-4.386,2.364-4.386,5.4
			C110.565,25.044,111.441,27.168,114.883,27.168z"/>
		<path fill="#FFFFFF" d="M125.949,5.538c0-0.203,0.135-0.34,0.337-0.34l3.372-0.335c0.204,0,0.338,0.134,0.338,0.335v22.647
			c0,1.347,0.338,2.229,0.338,2.36c0,0.204-0.135,0.338-0.338,0.338h-3.373c-0.134,0-0.27-0.134-0.337-0.338
			c0,0-0.337-1.013-0.337-2.36V5.538z"/>
		<g>
			<path fill="#FFFFFF" d="M135.66,6.245c1.315,0,2.363,1.046,2.363,2.363c0,1.315-1.048,2.364-2.363,2.364
				c-1.316,0-2.364-1.048-2.364-2.364C133.297,7.291,134.344,6.245,135.66,6.245z M133.635,13.672c0-0.204,0.135-0.339,0.338-0.339
				l3.374-0.335c0.204,0,0.34,0.134,0.34,0.335v14.511c0,1.347,0.337,2.229,0.337,2.36c0,0.204-0.136,0.338-0.337,0.338h-3.376
				c-0.134,0-0.27-0.134-0.337-0.338c0,0-0.338-1.013-0.338-2.36V13.672z"/>
		</g>
		<path fill="#FFFFFF" d="M210.305,13.672c0-0.204,0.131-0.339,0.334-0.339l3.377-0.335c0.203,0,0.337,0.134,0.337,0.335v14.511
			c0,1.347,0.338,2.229,0.338,2.36c0,0.204-0.136,0.338-0.338,0.338h-3.372c-0.136,0-0.276-0.134-0.341-0.338
			c0,0-0.334-1.013-0.334-2.36V13.672z"/>
		<path fill="#FFFFFF" d="M141.662,16.034c0-1.351-0.34-2.566-0.34-2.7c0-0.201,0.135-0.335,0.34-0.335h3.374
			c0.14,0,0.304,0.134,0.339,0.335l0.203,1.583c0,0,1.483-1.919,4.522-1.919c3.273,0,5.059,0.874,5.938,2.698
			c0.54-0.742,2.159-2.698,5.199-2.698c5.4,0,6.751,2.362,6.751,7.426v9.781c0,0.204-0.135,0.338-0.341,0.338h-3.375
			c-0.198,0-0.337-0.134-0.337-0.338v-9.781c0-3.383-1.013-4.056-2.698-4.056c-2.97,0-4.387,1.351-4.387,4.056v9.781
			c0,0.204-0.137,0.338-0.337,0.338h-3.377c-0.201,0-0.338-0.134-0.338-0.338v-9.781c0-3.383-1.011-4.056-2.698-4.056
			c-3.038,0-4.388,1.351-4.388,4.056v9.781c0,0.204-0.134,0.338-0.337,0.338H142c-0.202,0-0.337-0.134-0.337-0.338V16.034z"/>
		<g>
			<g>
				<path fill="#FFFFFF" d="M175.485,23.089c0.272,2.16,1.184,3.71,4.559,3.71c2.701,0,5.568-0.674,5.735-0.674
					c0.201,0,0.337,0.129,0.337,0.335c0,0.104-0.337,2.701-0.337,2.701c-0.031,0.17-0.134,0.302-0.337,0.337
					c0,0-2.361,0.677-5.399,0.677c-7.254,0-8.777-3.951-8.777-8.777c0-4.823,1.554-8.739,8.44-8.739
					c4.791,0,7.459,2.665,7.459,8.739v1.347c0,0.174-0.176,0.344-0.371,0.344H175.485z M175.485,19.71h7.56
					c-0.132-1.89-0.978-3.707-3.338-3.707C176.5,16.003,175.723,17.586,175.485,19.71z"/>
			</g>
		</g>
		<path fill="#FFFFFF" d="M202.717,28.755c0,0-1.958,1.789-4.49,1.789c-6.784,0-7.76-3.949-7.76-8.775c0-4.824,0.976-8.77,7.76-8.77
			c2.057,0,3.577,0.979,4.387,1.684V5.233c0-0.203,0.167-0.337,0.34-0.337c0.201,0,3.374,0.337,3.374,0.337
			c0.2,0.035,0.34,0.136,0.34,0.339v21.596c0,1.689,0.337,2.837,0.337,3.037c0,0.204-0.136,0.338-0.337,0.338h-3.377
			c-0.136,0-0.273-0.134-0.337-0.338C202.919,29.971,202.717,28.755,202.717,28.755z M198.227,16.369c-3.104,0-3.71,2.364-3.71,5.4
			c0,3.039,0.606,5.4,3.71,5.4c3.444,0,4.323-2.124,4.387-5.4C202.614,18.733,201.671,16.369,198.227,16.369z"/>
		<g>
			<path fill="#FFFFFF" d="M212.327,6.245c1.316,0,2.363,1.046,2.363,2.363c0,1.315-1.047,2.364-2.363,2.364
				c-1.315,0-2.363-1.048-2.363-2.364C209.963,7.291,211.012,6.245,212.327,6.245z M210.305,13.672c0-0.204,0.131-0.339,0.334-0.339
				l3.377-0.335c0.203,0,0.337,0.134,0.337,0.335v14.511c0,1.347,0.338,2.229,0.338,2.36c0,0.204-0.136,0.338-0.338,0.338h-3.372
				c-0.136,0-0.276-0.134-0.341-0.338c0,0-0.334-1.013-0.334-2.36V13.672z"/>
		</g>
		<path fill="#FFFFFF" d="M228.996,28.857c-0.673,0.74-2.125,1.686-4.89,1.686c-2.06,0-6.078-1.012-6.078-5.402
			c0-3.473,2.669-5.396,7.089-5.396c0.98,0,3.711,0.337,3.711,0.337v-1.485c0-1.314-1.145-2.228-3.375-2.228
			c-2.36,0-5.737,1.351-6.073,1.351c-0.201,0-0.341-0.134-0.341-0.339c0-0.069,0.341-2.699,0.341-2.699
			c0.032-0.135,0.169-0.27,0.337-0.336c0.136-0.068,3.007-1.348,5.737-1.348c4.422,0,7.427,2.024,7.427,5.395v8.775
			c0,1.689,0.337,2.87,0.337,3.037c0,0.204-0.136,0.338-0.337,0.338h-3.377c-0.137,0-0.269-0.097-0.337-0.338L228.996,28.857z
			 M228.828,23.792v-0.671h-3.711c-1.658,0-3.039,0.807-3.039,2.02c0,1.828,1.249,2.027,2.028,2.027
			C226.364,27.168,228.828,26.898,228.828,23.792z"/>
	</g>
	<g id="by_PRESADA_Co._4_">
		<g>
			<path fill="#FFFFFF" d="M136.418,42.187c-0.399,0.392-1.068,0.655-1.827,0.655c-0.82,0-1.511-0.203-2.113-0.993v0.898h-1.094
				V31.928h1.094v4.207c0.602-0.774,1.293-0.96,2.113-0.96c0.759,0,1.427,0.262,1.827,0.658c0.759,0.757,0.905,2.005,0.905,3.174
				C137.323,40.178,137.177,41.423,136.418,42.187z M134.364,36.152c-1.628,0-1.886,1.396-1.886,2.855
				c0,1.461,0.258,2.861,1.886,2.861c1.623,0,1.868-1.399,1.868-2.861C136.232,37.547,135.987,36.152,134.364,36.152z"/>
			<path fill="#FFFFFF" d="M140.51,44.554c-0.159,0.413-0.318,0.686-0.531,0.882c-0.397,0.38-0.93,0.521-1.459,0.521h-0.474v-0.978
				h0.338c0.759,0,0.985-0.239,1.227-0.926l0.536-1.452l-2.69-7.33h1.186l2.054,6.005l2.032-6.005h1.184L140.51,44.554z"/>
		</g>
		<g>
			<path fill="#FFFFFF" d="M149.993,42.6c0,0.085-0.062,0.147-0.153,0.147h-1.521c-0.088,0-0.15-0.062-0.15-0.147V32.261
				c0-0.089,0.062-0.14,0.15-0.152h1.218h1.977c3.492,0,3.951,1.672,3.951,3.265c0,1.596-0.459,3.269-3.951,3.269h-1.521V42.6z
				 M149.993,33.628v3.493h1.521c1.974,0,2.127-0.969,2.127-1.747c0-0.772-0.153-1.746-2.127-1.746H149.993z"/>
			<path fill="#FFFFFF" d="M161.178,39.25c-0.164-0.406-0.749-1.208-1.513-1.208h-1.069V42.6c0,0.085-0.062,0.147-0.15,0.147h-1.52
				c-0.09,0-0.152-0.062-0.152-0.147V32.261c0-0.089,0.062-0.14,0.152-0.152h1.366h1.823c3.497,0,3.952,1.366,3.952,2.964
				c0,1.294-0.302,2.278-1.9,2.737c0.413,0.388,0.731,0.892,0.914,1.291c0.895,1.956,1.441,3.498,1.441,3.498
				c0,0.085-0.062,0.147-0.152,0.147h-1.667c-0.063,0-0.108-0.062-0.154-0.147L161.178,39.25z M160.115,36.514
				c1.973,0,2.132-0.681,2.132-1.44c0-0.76-0.159-1.445-2.132-1.445h-1.519v2.886H160.115z"/>
			<path fill="#FFFFFF" d="M165.984,42.748c-0.089,0-0.148-0.062-0.148-0.147V32.261c0-0.089,0.059-0.14,0.148-0.152h1.521h4.86
				c0.095,0,0.137,0.063,0.153,0.152c0,0,0.156,1.153,0.156,1.214c0,0.092-0.066,0.152-0.156,0.152h-4.861v2.886h4.406
				c0.089,0,0.151,0.059,0.151,0.157v1.211c0,0.091-0.062,0.16-0.151,0.16h-4.406v3.186h4.861c0.089,0,0.156,0.059,0.156,0.152
				c0,0.062-0.156,1.22-0.156,1.22c-0.016,0.085-0.058,0.147-0.153,0.147H165.984z"/>
			<path fill="#FFFFFF" d="M177.622,41.38c1.701,0,1.972-0.821,1.972-1.448c0-0.83-1.014-1.258-2.126-1.592
				c-1.655-0.502-3.649-1.37-3.649-3.42c0-1.731,0.87-2.964,3.803-2.964c1.9,0,2.736,0.456,2.736,0.456
				c0.074,0.031,0.13,0.094,0.148,0.151c0,0,0.154,1.16,0.154,1.218c0,0.09-0.059,0.15-0.154,0.15c-0.073,0-1.192-0.455-2.883-0.455
				c-1.702,0-1.984,0.822-1.984,1.444c0,0.837,1.02,1.262,2.135,1.594c1.652,0.506,3.643,1.368,3.643,3.418
				c0,1.736-0.866,2.969-3.795,2.969c-2.008,0-3.348-0.607-3.348-0.607c-0.071-0.031-0.133-0.092-0.154-0.152
				c0,0-0.15-1.158-0.15-1.214c0-0.095,0.091-0.156,0.15-0.156C174.203,40.771,176.041,41.38,177.622,41.38z"/>
			<path fill="#FFFFFF" d="M187.779,32.109c0.077,0,0.121,0.075,0.152,0.152c0,0,3.952,10.274,3.952,10.339
				c0,0.085-0.062,0.147-0.155,0.147h-1.596c-0.059,0-0.116-0.062-0.148-0.147l-1.097-2.893h-4.073L183.75,42.6
				c-0.031,0.085-0.091,0.147-0.152,0.147h-1.594c-0.087,0-0.152-0.062-0.152-0.147c0-0.065,3.949-10.339,3.949-10.339
				c0.029-0.077,0.094-0.14,0.156-0.152h1.227H187.779z M185.394,38.188h2.929l-1.304-3.498l-0.152-0.409l-0.156,0.409
				L185.394,38.188z"/>
			<path fill="#FFFFFF" d="M193.162,42.748c-0.093,0-0.158-0.062-0.158-0.147V32.261c0-0.089,0.065-0.14,0.158-0.152h1.368h1.975
				c4.558,0,5.013,3.132,5.013,5.319c0,2.189-0.455,5.319-5.013,5.319H193.162z M194.835,33.628v7.6h1.671
				c2.731,0,3.116-2.357,3.116-3.799c0-1.444-0.385-3.801-3.116-3.801H194.835z"/>
			<path fill="#FFFFFF" d="M207.662,32.109c0.082,0,0.125,0.075,0.152,0.152c0,0,3.955,10.274,3.955,10.339
				c0,0.085-0.065,0.147-0.152,0.147h-1.597c-0.065,0-0.123-0.062-0.152-0.147l-1.093-2.893h-4.071l-1.068,2.893
				c-0.031,0.085-0.091,0.147-0.15,0.147h-1.594c-0.093,0-0.154-0.062-0.154-0.147c0-0.065,3.951-10.339,3.951-10.339
				c0.031-0.077,0.092-0.14,0.151-0.152h1.23H207.662z M205.277,38.188h2.937l-1.313-3.498l-0.147-0.409l-0.154,0.409
				L205.277,38.188z"/>
		</g>
		<g>
			<path fill="#FFFFFF" d="M219.81,42.842c-1.066,0-2.044-0.402-2.77-1.128c-1.017-1.02-1.017-2.082-1.017-4.379
				c0-2.293,0-3.352,1.017-4.373c0.725-0.734,1.704-1.128,2.77-1.128c1.947,0,3.389,1.188,3.749,3.225h-1.181
				c-0.293-1.323-1.22-2.188-2.569-2.188c-0.719,0-1.396,0.272-1.869,0.756c-0.688,0.699-0.761,1.445-0.761,3.707
				c0,2.268,0.073,3.011,0.761,3.708c0.473,0.484,1.15,0.762,1.869,0.762c1.349,0,2.307-0.863,2.597-2.187h1.152
				C223.213,41.654,221.739,42.842,219.81,42.842z"/>
			<path fill="#FFFFFF" d="M229.764,41.986c-0.518,0.517-1.232,0.856-2.143,0.856c-0.913,0-1.624-0.339-2.145-0.856
				c-0.762-0.771-0.908-1.824-0.908-2.979c0-1.152,0.147-2.206,0.908-2.981c0.521-0.513,1.232-0.852,2.145-0.852
				c0.911,0,1.624,0.339,2.143,0.852c0.757,0.775,0.912,1.829,0.912,2.981C230.676,40.161,230.521,41.215,229.764,41.986z
				 M228.983,36.697c-0.343-0.35-0.831-0.545-1.362-0.545c-0.536,0-1.006,0.195-1.353,0.545c-0.549,0.552-0.611,1.477-0.611,2.31
				c0,0.837,0.061,1.764,0.611,2.314c0.347,0.347,0.817,0.547,1.353,0.547c0.531,0,1.019-0.2,1.362-0.547
				c0.552-0.55,0.596-1.477,0.596-2.314C229.579,38.174,229.535,37.249,228.983,36.697z"/>
			<path fill="#FFFFFF" d="M231.79,42.748v-1.427h1.426v1.427H231.79z"/>
		</g>
	</g>
	<path fill="#7CC143" d="M50.801,42.411c9.612-9.609,9.612-25.195,0-34.817C41.175-2.009,25.596-2.019,15.98,7.602
		c-7.034,7.042-8.906,17.271-5.641,26.031L8.803,49.604l16.433-1.38C33.884,51.251,43.895,49.328,50.801,42.411z M43.827,14.555
		c5.774,5.774,5.774,15.126,0,20.909c-5.765,5.767-15.112,5.767-20.897-0.009c-5.761-5.774-5.77-15.118,0.009-20.88
		C28.714,8.799,38.075,8.799,43.827,14.555z"/>
</g>
</svg>
